<?xml version="1.0" standalone="no"?><!DOCTYPE svg PUBLIC "-//W3C//DTD SVG 1.1//EN" "http://www.w3.org/Graphics/SVG/1.1/DTD/svg11.dtd"><svg t="1720876258733" class="icon" viewBox="0 0 1260 1024" version="1.1" xmlns="http://www.w3.org/2000/svg" p-id="5969" width="246.09375" height="200" xmlns:xlink="http://www.w3.org/1999/xlink"><path d="M335.931 456.11c-64.827 0-117.38-48.202-117.38-107.547s52.553-107.638 117.38-107.638 117.35 48.054 117.35 107.638S400.668 456.14 335.93 456.14z m799.132 26.158V358.215h56.605v579.687c0 47.488-50.646 86.098-113.417 86.098H113.417C50.854 1024 0 985.48 0 937.991V206.427c0-47.488 50.884-85.83 113.417-85.83h772.022v42.99H112.404c-30.715 0-55.591 18.917-55.591 42.125v629.796l318.77-241.73 158.314 120.12 453.31-343.647 147.856 112.076zM112.404 980.98h693.64l-430.52-326.398-318.77 241.79v42.542c0 23.327 24.875 42.125 55.59 42.125z m1022.66-42.155V543.073L987.296 430.996l-413.211 313.38L886.303 981.04h193.11c30.715 0 55.59-18.888 55.59-42.125z m101.798-808.309c12.84 0 23.327 9.504 23.327 21.42s-10.487 21.42-23.327 21.42h-118.929v108.92c0 11.916-10.486 21.42-23.327 21.42s-23.327-9.623-23.327-21.42v-108.92H952.381c-12.84 0-23.327-9.622-23.327-21.42s10.487-21.33 23.327-21.33h118.928V21.33C1071.31 9.414 1081.796 0 1094.636 0s23.327 9.623 23.327 21.33v109.098h118.928z" fill="#FF7200" p-id="5970"></path></svg>